<svg width="15.000000" height="15.000000" viewBox="0 0 15 15" fill="none" xmlns="http://www.w3.org/2000/svg" xmlns:xlink="http://www.w3.org/1999/xlink">
	<desc>
			Created with Pixso.
	</desc>
	<defs/>
	<path id="" d="M7.5 11.25L13.125 11.25C14.1504 11.25 15 10.4297 15 9.375L15 3.39844C15 3.04688 14.8242 2.66602 14.5605 2.40234L12.5977 0.439453C12.334 0.175781 11.9531 0 11.6016 0L7.5 0C6.44531 0 5.625 0.849609 5.625 1.875L5.625 9.375C5.625 10.4297 6.44531 11.25 7.5 11.25ZM4.6875 3.75L1.875 3.75C0.820312 3.75 0 4.59961 0 5.625L0 13.125C0 14.1797 0.820312 15 1.875 15L7.5 15C8.52539 15 9.375 14.1797 9.375 13.125L9.375 12.1875L7.96875 12.1875L7.96875 13.125C7.96875 13.3887 7.73438 13.5938 7.5 13.5938L1.875 13.5938C1.61133 13.5938 1.40625 13.3887 1.40625 13.125L1.40625 5.625C1.40625 5.39062 1.61133 5.15625 1.875 5.15625L4.6875 5.15625L4.6875 3.75Z" fill="#C3C5CB" fill-opacity="1.000000" fill-rule="evenodd"/>
</svg>
