<svg width="15.000000" height="15.000000" viewBox="0 0 15 15" fill="none" xmlns="http://www.w3.org/2000/svg" xmlns:xlink="http://www.w3.org/1999/xlink">
	<desc>
			Created with Pixso.
	</desc>
	<defs/>
	<path id="ï›" d="M8.4375 0.9375C8.4375 0.439453 7.99805 0 7.5 0C6.97266 0 6.5625 0.439453 6.5625 0.9375L6.5625 1.25977C3.80859 1.66992 1.64062 3.83789 1.23047 6.5625L0.9375 6.5625C0.410156 6.5625 0 7.00195 0 7.5C0 8.02734 0.410156 8.4375 0.9375 8.4375L1.23047 8.4375C1.64062 11.1914 3.80859 13.3594 6.5625 13.7695L6.5625 14.0625C6.5625 14.5898 6.97266 15 7.5 15C7.99805 15 8.4375 14.5898 8.4375 14.0625L8.4375 13.7695C11.1621 13.3594 13.3301 11.1914 13.7402 8.4375L14.0625 8.4375C14.5605 8.4375 15 8.02734 15 7.5C15 7.00195 14.5605 6.5625 14.0625 6.5625L13.7402 6.5625C13.3301 3.83789 11.1621 1.66992 8.4375 1.25977L8.4375 0.9375ZM6.5625 11.8652C4.83398 11.5137 3.48633 10.166 3.13477 8.4375L3.75 8.4375C4.24805 8.4375 4.6875 8.02734 4.6875 7.5C4.6875 7.00195 4.24805 6.5625 3.75 6.5625L3.13477 6.5625C3.48633 4.86328 4.83398 3.51562 6.5625 3.16406L6.5625 3.75C6.5625 4.27734 6.97266 4.6875 7.5 4.6875C7.99805 4.6875 8.4375 4.27734 8.4375 3.75L8.4375 3.16406C10.1367 3.51562 11.4844 4.86328 11.8359 6.5625L11.25 6.5625C10.7227 6.5625 10.3125 7.00195 10.3125 7.5C10.3125 8.02734 10.7227 8.4375 11.25 8.4375L11.8359 8.4375C11.4844 10.166 10.1367 11.5137 8.4375 11.8652L8.4375 11.25C8.4375 10.752 7.99805 10.3125 7.5 10.3125C6.97266 10.3125 6.5625 10.752 6.5625 11.25L6.5625 11.8652ZM8.4375 7.5C8.4375 7.00195 7.99805 6.5625 7.5 6.5625C6.97266 6.5625 6.5625 7.00195 6.5625 7.5C6.5625 8.02734 6.97266 8.4375 7.5 8.4375C7.99805 8.4375 8.4375 8.02734 8.4375 7.5Z" fill="#C3C5CB" fill-opacity="1.000000" fill-rule="evenodd"/>
</svg>
