<svg width="15.000000" height="15.000000" viewBox="0 0 15 15" fill="none" xmlns="http://www.w3.org/2000/svg" xmlns:xlink="http://www.w3.org/1999/xlink">
	<desc>
			Created with Pixso.
	</desc>
	<defs/>
	<path id="" d="M7.5 0C7.99805 0 8.4375 0.439453 8.4375 0.9375L8.4375 8.05664L10.5762 5.91797C10.9277 5.53711 11.543 5.53711 11.8945 5.91797C12.2754 6.26953 12.2754 6.88477 11.8945 7.23633L8.14453 10.9863C7.79297 11.3672 7.17773 11.3672 6.82617 10.9863L3.07617 7.23633C2.69531 6.88477 2.69531 6.26953 3.07617 5.91797C3.42773 5.53711 4.04297 5.53711 4.39453 5.91797L6.5625 8.05664L6.5625 0.9375C6.5625 0.439453 6.97266 0 7.5 0ZM0 12.1875C0 11.1621 0.820312 10.3125 1.875 10.3125L4.83398 10.3125L6.15234 11.6602C6.88477 12.3926 8.08594 12.3926 8.81836 11.6602L10.1367 10.3125L13.125 10.3125C14.1504 10.3125 15 11.1621 15 12.1875L15 13.125C15 14.1797 14.1504 15 13.125 15L1.875 15C0.820312 15 0 14.1797 0 13.125L0 12.1875ZM13.3594 12.6562C13.3594 12.2754 13.0371 11.9531 12.6562 11.9531C12.2461 11.9531 11.9531 12.2754 11.9531 12.6562C11.9531 13.0664 12.2461 13.3594 12.6562 13.3594C13.0371 13.3594 13.3594 13.0664 13.3594 12.6562Z" fill="#C3C5CB" fill-opacity="1.000000" fill-rule="evenodd"/>
</svg>
