<svg width="15.000000" height="13.125000" viewBox="0 0 15 13.125" fill="none" xmlns="http://www.w3.org/2000/svg" xmlns:xlink="http://www.w3.org/1999/xlink">
	<desc>
			Created with Pixso.
	</desc>
	<defs/>
	<path id="ï»" d="M1.875 0C0.820312 0 0 0.849609 0 1.875L0 11.25C0 12.3047 0.820312 13.125 1.875 13.125L13.125 13.125C14.1504 13.125 15 12.3047 15 11.25L15 3.75C15 2.72461 14.1504 1.875 13.125 1.875L8.4668 1.875L7.23633 0.644531C6.82617 0.234375 6.29883 0 5.74219 0L1.875 0ZM1.40625 1.875C1.40625 1.64062 1.61133 1.40625 1.875 1.40625L5.74219 1.40625C5.91797 1.40625 6.09375 1.49414 6.24023 1.61133L7.55859 2.95898C7.76367 3.16406 8.08594 3.28125 8.37891 3.28125L13.125 3.28125C13.3594 3.28125 13.5938 3.51562 13.5938 3.75L13.5938 11.25C13.5938 11.5137 13.3594 11.7188 13.125 11.7188L1.875 11.7188C1.61133 11.7188 1.40625 11.5137 1.40625 11.25L1.40625 1.875Z" fill="#C3C5CB" fill-opacity="1.000000" fill-rule="evenodd"/>
</svg>
