<svg width="15.000000" height="13.125000" viewBox="0 0 15 13.125" fill="none" xmlns="http://www.w3.org/2000/svg" xmlns:xlink="http://www.w3.org/1999/xlink">
	<desc>
			Created with Pixso.
	</desc>
	<defs/>
	<path id="" d="M0 1.875C0 0.849609 0.820312 0 1.875 0L13.125 0C14.1504 0 15 0.849609 15 1.875L15 11.25C15 12.3047 14.1504 13.125 13.125 13.125L1.875 13.125C0.820312 13.125 0 12.3047 0 11.25L0 1.875ZM1.875 5.625L6.5625 5.625L6.5625 1.875L1.875 1.875L1.875 5.625ZM13.125 5.625L13.125 1.875L8.4375 1.875L8.4375 5.625L13.125 5.625ZM6.5625 7.5L1.875 7.5L1.875 11.25L6.5625 11.25L6.5625 7.5ZM13.125 11.25L13.125 7.5L8.4375 7.5L8.4375 11.25L13.125 11.25Z" fill="#C3C5CB" fill-opacity="1.000000" fill-rule="evenodd"/>
</svg>
