<svg width="16" height="17" viewBox="0 0 16 17" fill="none" xmlns="http://www.w3.org/2000/svg">
<path d="M14.0938 8.375C14.0938 6.20703 12.9219 4.21484 11.0469 3.10156C9.14258 2.01758 6.82812 2.01758 4.95312 3.10156C3.04883 4.21484 1.90625 6.20703 1.90625 8.375C1.90625 10.5723 3.04883 12.5645 4.95312 13.6777C6.82812 14.7617 9.14258 14.7617 11.0469 13.6777C12.9219 12.5645 14.0938 10.5723 14.0938 8.375ZM0.5 8.375C0.5 5.70898 1.90625 3.24805 4.25 1.90039C6.56445 0.552734 9.40625 0.552734 11.75 1.90039C14.0645 3.24805 15.5 5.70898 15.5 8.375C15.5 11.0703 14.0645 13.5312 11.75 14.8789C9.40625 16.2266 6.56445 16.2266 4.25 14.8789C1.90625 13.5312 0.5 11.0703 0.5 8.375ZM5.45117 5.73828C5.68555 5.06445 6.30078 4.625 7.00391 4.625H8.70312C9.72852 4.625 10.5781 5.47461 10.5781 6.5C10.5781 7.14453 10.1973 7.75977 9.64062 8.08203L8.70312 8.63867C8.67383 9.01953 8.38086 9.3125 8 9.3125C7.58984 9.3125 7.29688 9.01953 7.29688 8.60938V8.22852C7.29688 7.96484 7.41406 7.73047 7.64844 7.61328L8.9375 6.88086C9.08398 6.79297 9.17188 6.64648 9.17188 6.5C9.17188 6.23633 8.9668 6.06055 8.70312 6.06055H7.00391C6.91602 6.06055 6.82812 6.11914 6.79883 6.20703L6.76953 6.23633C6.65234 6.61719 6.24219 6.79297 5.89062 6.67578C5.50977 6.5293 5.33398 6.11914 5.45117 5.76758V5.73828ZM7.0625 11.1875C7.0625 10.6895 7.47266 10.25 8 10.25C8.49805 10.25 8.9375 10.6895 8.9375 11.1875C8.9375 11.7148 8.49805 12.125 8 12.125C7.47266 12.125 7.0625 11.7148 7.0625 11.1875Z" fill="white"/>
</svg>
