<svg width="17.709961" height="13.779297" viewBox="0 0 17.71 13.7793" fill="none" xmlns="http://www.w3.org/2000/svg" xmlns:xlink="http://www.w3.org/1999/xlink">
	<desc>
			Created with Pixso.
	</desc>
	<defs/>
	<path id="ïƒ" d="M13.1763 10.5078L16.4575 7.22656C18.1274 5.58594 18.1274 2.89062 16.4575 1.25C14.9927 -0.214844 12.7075 -0.419922 11.0083 0.78125L10.9497 0.810547C10.5396 1.13281 10.4517 1.71875 10.7446 2.12891C11.0376 2.53906 11.6235 2.65625 12.063 2.33398L12.0923 2.30469C13.0298 1.63086 14.3188 1.74805 15.1392 2.56836C16.0767 3.47656 16.0767 4.9707 15.1392 5.9082L11.8579 9.18945C10.9204 10.127 9.42627 10.127 8.51807 9.18945C7.69775 8.36914 7.58057 7.08008 8.25439 6.14258L8.28369 6.11328C8.60596 5.67383 8.48877 5.08789 8.07861 4.79492C7.66846 4.50195 7.08252 4.58984 6.76025 5.0293L6.73096 5.05859C5.52979 6.75781 5.73486 9.04297 7.19971 10.5078C8.84033 12.1777 11.5356 12.1777 13.1763 10.5078ZM4.53369 3.24219L1.25244 6.55273C-0.41748 8.19336 -0.41748 10.8887 1.25244 12.5293C2.71729 13.9941 5.03174 14.1992 6.70166 12.998L6.76025 12.9688C7.17041 12.6465 7.2583 12.0605 6.96533 11.6504C6.67236 11.2402 6.08643 11.123 5.64697 11.4453L5.61768 11.4746C4.68018 12.1484 3.39111 12.0312 2.5708 11.2109C1.6626 10.2734 1.6626 8.7793 2.5708 7.87109L5.85205 4.58984C6.78955 3.65234 8.28369 3.65234 9.19189 4.58984C10.0122 5.41016 10.1294 6.66992 9.45557 7.63672L9.42627 7.66602C9.104 8.10547 9.22119 8.69141 9.63135 8.98438C10.0415 9.27734 10.6567 9.18945 10.9497 8.75L10.979 8.7207C12.1802 7.02148 12.0044 4.70703 10.5396 3.24219C8.86963 1.60156 6.20361 1.60156 4.53369 3.24219Z" fill="#919399" fill-opacity="1.000000" fill-rule="evenodd"/>
</svg>
