<svg width="16" height="14" viewBox="0 0 16 14" fill="none" xmlns="http://www.w3.org/2000/svg">
<path d="M15.207 8.04883C15.5879 7.69727 15.5879 7.08203 15.207 6.73047L11.457 2.98047C11.1055 2.59961 10.4902 2.59961 10.1387 2.98047C9.75781 3.33203 9.75781 3.94727 10.1387 4.29883L12.2773 6.4375H6.125C5.59766 6.4375 5.1875 6.87695 5.1875 7.375C5.1875 7.90234 5.59766 8.3125 6.125 8.3125H12.2773L10.1387 10.4805C9.75781 10.832 9.75781 11.4473 10.1387 11.7988C10.4902 12.1797 11.1055 12.1797 11.457 11.7988L15.207 8.04883ZM5.1875 2.6875C5.68555 2.6875 6.125 2.27734 6.125 1.75C6.125 1.25195 5.68555 0.8125 5.1875 0.8125H3.3125C1.75977 0.8125 0.5 2.07227 0.5 3.625V11.125C0.5 12.6777 1.75977 13.9375 3.3125 13.9375H5.1875C5.68555 13.9375 6.125 13.5273 6.125 13C6.125 12.502 5.68555 12.0625 5.1875 12.0625H3.3125C2.78516 12.0625 2.375 11.6523 2.375 11.125V3.625C2.375 3.12695 2.78516 2.6875 3.3125 2.6875H5.1875Z" fill="white"/>
</svg>
