<svg width="12.187500" height="12.187500" viewBox="0 0 12.1875 12.1875" fill="none" xmlns="http://www.w3.org/2000/svg" xmlns:xlink="http://www.w3.org/1999/xlink">
	<desc>
			Created with Pixso.
	</desc>
	<defs/>
	<path id="+" d="M6.09375 0C6.47461 0 6.79688 0.322266 6.79688 0.703125L6.79688 5.39062L11.4844 5.39062C11.8652 5.39062 12.1875 5.71289 12.1875 6.09375C12.1875 6.50391 11.8652 6.79688 11.4844 6.79688L6.79688 6.79688L6.79688 11.4844C6.79688 11.8945 6.47461 12.1875 6.09375 12.1875C5.68359 12.1875 5.39062 11.8945 5.39062 11.4844L5.39062 6.79688L0.703125 6.79688C0.292969 6.79688 0 6.50391 0 6.09375C0 5.71289 0.292969 5.39062 0.703125 5.39062L5.39062 5.39062L5.39062 0.703125C5.39062 0.322266 5.68359 0 6.09375 0Z" fill="#000000" fill-opacity="1.000000" fill-rule="evenodd"/>
</svg>
