<svg width="15.000000" height="13.125000" viewBox="0 0 15 13.125" fill="none" xmlns="http://www.w3.org/2000/svg" xmlns:xlink="http://www.w3.org/1999/xlink">
	<desc>
			Created with Pixso.
	</desc>
	<defs/>
	<path id="" d="M1.875 0C0.820312 0 0 0.849609 0 1.875L0 11.25C0 12.3047 0.820312 13.125 1.875 13.125L13.125 13.125C14.1504 13.125 15 12.3047 15 11.25L15 1.875C15 0.849609 14.1504 0 13.125 0L1.875 0ZM1.875 3.75L1.875 1.875L3.75 1.875L3.75 3.75L1.875 3.75ZM5.625 1.875L13.125 1.875L13.125 3.75L5.625 3.75L5.625 1.875ZM1.875 7.5L1.875 5.625L3.75 5.625L3.75 7.5L1.875 7.5ZM5.625 5.625L13.125 5.625L13.125 7.5L5.625 7.5L5.625 5.625ZM1.875 11.25L1.875 9.375L3.75 9.375L3.75 11.25L1.875 11.25ZM5.625 9.375L13.125 9.375L13.125 11.25L5.625 11.25L5.625 9.375Z" fill="#C3C5CB" fill-opacity="1.000000" fill-rule="evenodd"/>
</svg>
