<svg width="14.992676" height="15.021973" viewBox="0 0 14.9927 15.022" fill="none" xmlns="http://www.w3.org/2000/svg" xmlns:xlink="http://www.w3.org/1999/xlink">
	<desc>
			Created with Pixso.
	</desc>
	<defs/>
	<path id="" d="M11.0156 9.69727C11.748 8.70117 12.1875 7.44141 12.1875 6.09375C12.1875 2.75391 9.43359 0 6.09375 0C2.72461 0 0 2.75391 0 6.09375C0 9.46289 2.72461 12.1875 6.09375 12.1875C7.41211 12.1875 8.67188 11.7773 9.66797 11.0156L13.3887 14.7363C13.7402 15.1172 14.3555 15.1172 14.707 14.7363C15.0879 14.3848 15.0879 13.7695 14.707 13.418L11.0156 9.69727ZM9.72656 8.20312C8.96484 9.52148 7.58789 10.3125 6.09375 10.3125C4.57031 10.3125 3.19336 9.52148 2.43164 8.20312C1.66992 6.91406 1.66992 5.30273 2.43164 3.98438C3.19336 2.69531 4.57031 1.875 6.09375 1.875C7.58789 1.875 8.96484 2.69531 9.72656 3.98438C10.4883 5.30273 10.4883 6.91406 9.72656 8.20312Z" fill="#919399" fill-opacity="1.000000" fill-rule="evenodd"/>
</svg>
