<svg width="13.125000" height="15.000000" viewBox="0 0 13.125 15" fill="none" xmlns="http://www.w3.org/2000/svg" xmlns:xlink="http://www.w3.org/1999/xlink">
	<desc>
			Created with Pixso.
	</desc>
	<defs/>
	<path id="" d="M3.75 0.9375L3.95508 0.527344C4.10156 0.205078 4.42383 0 4.77539 0L8.32031 0C8.67188 0 8.99414 0.205078 9.14062 0.527344L9.375 0.9375L12.1875 0.9375C12.6855 0.9375 13.125 1.37695 13.125 1.875C13.125 2.40234 12.6855 2.8125 12.1875 2.8125L0.9375 2.8125C0.410156 2.8125 0 2.40234 0 1.875C0 1.37695 0.410156 0.9375 0.9375 0.9375L3.75 0.9375ZM0.9375 3.75L12.1875 3.75L11.543 13.6816C11.5137 14.4434 10.8984 15 10.1367 15L2.95898 15C2.19727 15 1.58203 14.4434 1.55273 13.6816L0.9375 3.75Z" fill="#C3C5CB" fill-opacity="1.000000" fill-rule="evenodd"/>
</svg>
